<svg width="32" height="32" viewBox="0 0 32 32" xmlns="http://www.w3.org/2000/svg">
  <!-- Background circle -->
  <circle cx="16" cy="16" r="16" fill="#1a4d4d"/>
  
  <!-- Outer circle -->
  <circle cx="16" cy="16" r="14" fill="none" stroke="#f4d03f" stroke-width="0.5"/>
  
  <!-- Inner circle -->
  <circle cx="16" cy="16" r="10" fill="none" stroke="#f4d03f" stroke-width="0.5"/>
  
  <!-- Central "813" text -->
  <text x="16" y="18" font-family="Arial, sans-serif" font-size="8" font-weight="300" fill="#f4d03f" text-anchor="middle">813</text>
  
  <!-- Top arc text: "eight thirteen" -->
  <path id="topArc" d="M 6 16 A 10 10 0 0 1 26 16" fill="none"/>
  <text font-family="Arial, sans-serif" font-size="2.5" font-weight="300" fill="#f4d03f">
    <textPath href="#topArc" startOffset="25%">eight thirteen</textPath>
  </text>
  
  <!-- Bottom arc text: "cafe + coworking + event space" -->
  <path id="bottomArc" d="M 26 16 A 10 10 0 0 1 6 16" fill="none"/>
  <text font-family="Arial, sans-serif" font-size="2" font-weight="300" fill="#f4d03f">
    <textPath href="#bottomArc" startOffset="15%">cafe + coworking + event space</textPath>
  </text>
  
  <!-- Left lotus icon -->
  <g transform="translate(8, 12)">
    <circle cx="0" cy="0" r="0.8" fill="#f4d03f"/>
    <circle cx="0" cy="-1.2" r="0.6" fill="#f4d03f"/>
    <circle cx="0" cy="1.2" r="0.6" fill="#f4d03f"/>
    <circle cx="-1.2" cy="0" r="0.6" fill="#f4d03f"/>
    <circle cx="1.2" cy="0" r="0.6" fill="#f4d03f"/>
  </g>
  
  <!-- Right lotus icon -->
  <g transform="translate(24, 12)">
    <circle cx="0" cy="0" r="0.8" fill="#f4d03f"/>
    <circle cx="0" cy="-1.2" r="0.6" fill="#f4d03f"/>
    <circle cx="0" cy="1.2" r="0.6" fill="#f4d03f"/>
    <circle cx="-1.2" cy="0" r="0.6" fill="#f4d03f"/>
    <circle cx="1.2" cy="0" r="0.6" fill="#f4d03f"/>
  </g>
</svg>
